<svg xmlns="http://www.w3.org/2000/svg" height="512" viewBox="0 0 64 64" width="512"><g id="_13-dumbbells" data-name="13-dumbbells"><path d="m12 45a4 4 0 0 1 -4-4v-18a4 4 0 0 1 8 0h-2a2 2 0 0 0 -4 0v18a2 2 0 0 0 4 0h2a4 4 0 0 1 -4 4z"></path><path d="m5 35h-4a1 1 0 0 1 -1-1v-4a1 1 0 0 1 1-1h4a1 1 0 0 1 1 1v4a1 1 0 0 1 -1 1zm-3-2h2v-2h-2z"></path><path d="m7 42a3 3 0 0 1 -3-3v-14a3 3 0 0 1 6 0v14a3 3 0 0 1 -3 3zm0-18a1 1 0 0 0 -1 1v14a1 1 0 0 0 2 0v-14a1 1 0 0 0 -1-1z"></path><path d="m14 27h2v3h-2z"></path><path d="m18 48a4 4 0 0 1 -4-4v-12h2v12a2 2 0 0 0 4 0v-24a2 2 0 0 0 -4 0v5h-2v-5a4 4 0 0 1 8 0v24a4 4 0 0 1 -4 4z"></path><path d="m52 45a4 4 0 0 1 -4-4h2a2 2 0 0 0 4 0v-18a2 2 0 0 0 -4 0h-2a4 4 0 0 1 8 0v18a4 4 0 0 1 -4 4z"></path><path d="m63 35h-4a1 1 0 0 1 -1-1v-4a1 1 0 0 1 1-1h4a1 1 0 0 1 1 1v4a1 1 0 0 1 -1 1zm-3-2h2v-2h-2z"></path><path d="m57 42a3 3 0 0 1 -3-3v-14a3 3 0 0 1 6 0v14a3 3 0 0 1 -3 3zm0-18a1 1 0 0 0 -1 1v14a1 1 0 0 0 2 0v-14a1 1 0 0 0 -1-1z"></path><path d="m46 48a4 4 0 0 1 -4-4v-24a4 4 0 0 1 8 0v17h-2v-17a2 2 0 0 0 -4 0v24a2 2 0 0 0 4 0v-5h2v5a4 4 0 0 1 -4 4z"></path><path d="m43 35h-22a1 1 0 0 1 -1-1v-4a1 1 0 0 1 1-1h3v2h-2v2h20v-2h-16v-2h17a1 1 0 0 1 1 1v4a1 1 0 0 1 -1 1z"></path></g></svg>